<svg width="388" height="89" viewBox="0 0 388 89" fill="none" xmlns="http://www.w3.org/2000/svg">
<path d="M25.1029 3.58569C22.0362 4.11903 17.7695 5.58569 15.6362 6.65236C10.4362 9.31902 3.63621 17.319 2.56955 21.8524C2.16955 23.8524 1.63621 26.119 1.36955 26.919C1.10288 27.719 1.50288 31.0524 2.16955 34.3857C4.43621 45.0524 16.4362 53.9857 28.4362 54.119C34.9696 54.119 39.3695 55.9857 39.3695 58.7857C39.3695 64.3857 24.3029 64.7857 16.7029 59.4524L12.4362 56.519L7.10288 61.5857C-0.497119 69.0524 -1.43045 71.0524 1.63621 74.3857C9.50288 83.1857 30.7029 87.4524 42.9696 82.7857C56.8362 77.4524 65.5029 62.919 62.0362 50.3857C59.3695 39.9857 46.8362 32.7857 31.5029 32.7857C28.8362 32.7857 25.3695 31.9857 24.0362 30.919C21.9029 29.319 21.7695 28.7857 23.2362 26.919C26.0362 23.5857 36.3029 24.119 44.0362 28.119C47.6362 29.8524 50.7029 31.1857 50.7029 31.0524C50.8362 30.919 53.5029 27.319 56.8362 22.919L62.5695 15.1857L59.3695 12.3857C50.7029 5.31902 35.9029 1.45235 25.1029 3.58569Z" fill="#F6D000"/>
<path d="M161.667 26.5807C159.133 27.114 155.667 28.314 154.067 29.114C151.8 30.314 150.467 30.314 147.4 28.714C142.6 26.1807 130.067 26.1807 125.4 28.5807C122.2 30.314 121.667 30.314 121.667 28.5807C121.667 27.114 119.533 26.714 112.333 26.714H103V55.3807V84.1807L112.733 83.7807L122.333 83.3807V65.914C122.333 46.714 123.4 43.6473 129.533 44.314C134.867 44.9807 136.333 49.514 136.333 66.9807V82.714H146.333H156.333V65.914C156.333 56.714 157 48.0473 157.667 46.5807C159.267 43.7807 164.867 43.114 166.6 45.6473C167.133 46.5807 167.933 55.514 168.333 65.3807L169 83.3807L178.733 83.7807L188.6 84.1807L188.067 62.4473C187.667 39.2473 186.067 32.714 179.8 28.714C176.2 26.314 167.533 25.2473 161.667 26.5807Z" fill="#F6D000"/>
<path d="M213.778 27.0599C197.511 32.1266 188.978 46.1266 192.978 61.5933C199.378 86.3933 231.645 92.3933 246.311 71.4599C249.778 66.5266 250.445 64.1266 250.845 55.9933C251.511 44.6599 248.711 37.4599 241.511 32.1266C234.311 26.6599 222.311 24.5266 213.778 27.0599ZM229.778 47.1933C231.511 48.9266 232.445 51.5933 232.445 55.1933C232.445 61.9933 228.845 65.8599 222.445 65.8599C212.711 65.8599 207.511 54.5266 214.045 47.5933C217.778 43.5933 225.911 43.3266 229.778 47.1933Z" fill="#F6D000"/>
<path d="M330 46.3998C330 64.9332 330.267 67.3332 333.067 72.6665C338.133 82.7998 351.867 86.6665 361.733 80.6665C366.933 77.4665 367.333 77.4665 367.333 79.9998C367.333 81.5998 369.333 81.9998 377.333 81.9998H387.333V53.9998V25.9998H377.333H367.333V39.9998C367.333 55.7332 365.467 61.4665 360.133 62.7998C356 63.7332 351.6 61.3332 350 57.1998C349.2 55.3332 349.067 47.7332 349.6 39.9998L350.4 25.9998H340.267H330V46.3998Z" fill="#F6D000"/>
<path d="M82.5106 0.0233078C81.4981 0.110947 79.9527 0.937202 79.3932 1.68834C78.9136 2.32681 78.8603 2.87765 78.7271 8.82418C78.6205 14.6205 78.5406 15.309 78.1409 15.6721C76.6488 16.9365 73.8778 16.8614 72.439 15.4968C71.9594 15.0461 71.9327 14.5704 71.8528 8.19823C71.8261 4.44253 71.7196 1.30025 71.6663 1.21262C71.5597 1.08743 71.1867 1.1375 70.1742 1.40041C66.7903 2.26421 64.3923 4.43001 63.4065 7.50969C62.9269 9.01197 62.8469 15.6095 63.2999 17.8379C63.8061 20.5545 66.1509 24.498 68.7354 27.0644C70.2541 28.5667 73.1584 30.8702 75.2633 32.2348L76.9153 33.2989L76.7554 36.4286C76.6488 38.1437 76.409 42.9886 76.1959 47.195C75.9827 51.3889 75.6363 58.3494 75.3965 62.656C75.1834 66.9625 74.8636 72.8966 74.7038 75.8636C74.5439 78.818 74.4373 82.1731 74.5172 83.3124C74.5972 85.1902 74.6771 85.4406 75.2633 86.004C76.7287 87.4186 80.1659 88.5453 83.3632 88.658C88.2392 88.8458 92.6888 87.3185 93.9145 85.04C94.2076 84.4892 94.0477 81.4095 92.8487 65.0972C92.7155 63.1693 92.1559 55.2197 91.623 47.4203L90.6372 33.2613L93.0618 31.5462C97.6447 28.3163 101.482 24.2351 102.947 20.9676C103.933 18.7267 104.093 17.4999 103.959 12.1417C103.88 7.3845 103.826 6.93382 103.293 5.96985C102.094 3.82909 99.9628 2.26421 97.245 1.50056C95.0868 0.912163 95.2467 0.37384 95.2467 7.91029C95.2467 12.4422 95.1401 14.8083 94.9536 15.1463C94.7937 15.4217 94.2076 15.8474 93.6214 16.1353C92.7155 16.5484 92.4757 16.611 91.7563 16.5359C90.504 16.4232 89.4915 16.0226 88.9586 15.4342C88.5056 14.946 88.4523 14.32 88.3191 8.699C88.1859 4.5552 88.0527 2.35185 87.8395 2.06391C86.8803 0.674301 84.6955 -0.151955 82.5106 0.0233078Z" fill="#F6D000"/>
<path d="M299.841 4.79992L290.508 7.59992L290.108 37.5999C289.841 66.6666 289.841 67.8666 292.908 73.4666C297.974 83.0666 307.974 86.2666 321.041 82.6666C325.841 81.3333 326.108 81.0666 325.308 77.0666C322.774 64.5333 321.841 62.7999 317.974 62.7999C311.041 62.7999 310.508 60.7999 309.841 30.2666L309.174 1.99992L299.841 4.79992Z" fill="#F6D000"/>
<path d="M263.841 6.79992L254.508 9.59992L254.108 39.5999C253.841 68.6666 253.841 69.8666 256.908 75.4666C261.974 85.0666 271.974 88.2666 285.041 84.6666C289.841 83.3333 290.108 83.0666 289.308 79.0666C286.774 66.5333 285.841 64.7999 281.974 64.7999C275.041 64.7999 274.508 62.7999 273.841 32.2666L273.174 3.99992L263.841 6.79992Z" fill="#F6D000"/>
</svg>
